<?xml version="1.0" encoding="UTF-8" standalone="no"?>
<svg
   xmlns:dc="http://purl.org/dc/elements/1.1/"
   xmlns:cc="http://creativecommons.org/ns#"
   xmlns:rdf="http://www.w3.org/1999/02/22-rdf-syntax-ns#"
   xmlns:svg="http://www.w3.org/2000/svg"
   xmlns="http://www.w3.org/2000/svg"
   version="1.1"
   id="svg2"
   height="170.66667"
   width="266.66666">
  <title
     id="title4040">Ghostbird Spaceflight logo</title>
  <defs
     id="defs4" />
  <metadata
     id="metadata7">
    <rdf:RDF>
      <cc:Work
         rdf:about="">
        <dc:format>image/svg+xml</dc:format>
        <dc:type
           rdf:resource="http://purl.org/dc/dcmitype/StillImage" />
        <dc:title>Ghostbird Spaceflight logo</dc:title>
        <dc:date>4 January 2016</dc:date>
        <dc:creator>
          <cc:Agent>
            <dc:title>Gijsbert ter Horst</dc:title>
          </cc:Agent>
        </dc:creator>
        <dc:rights>
          <cc:Agent>
            <dc:title>Gijsbert ter Horst</dc:title>
          </cc:Agent>
        </dc:rights>
        <dc:publisher>
          <cc:Agent>
            <dc:title>Gijsbert ter Horst</dc:title>
          </cc:Agent>
        </dc:publisher>
        <dc:description>The banner for the company Ghostbird Spaceflight. It depicts Ghostbird as Athene Noctua perched on a white circle inscribed with “Ghostbird” and “Spaceflight” in the typeface Caslon Roman. This emblem is set on a dark blue field with scattered, white, five-pointed stars.</dc:description>
        <cc:license
           rdf:resource="http://creativecommons.org/licenses/by-nc-nd/4.0/" />
        <dc:contributor>
          <cc:Agent>
            <dc:title>George Williams (Caslon Roman typeface)</dc:title>
          </cc:Agent>
        </dc:contributor>
        <dc:language>English</dc:language>
      </cc:Work>
      <cc:License
         rdf:about="http://creativecommons.org/licenses/by-nc-nd/4.0/">
        <cc:permits
           rdf:resource="http://creativecommons.org/ns#Reproduction" />
        <cc:permits
           rdf:resource="http://creativecommons.org/ns#Distribution" />
        <cc:requires
           rdf:resource="http://creativecommons.org/ns#Notice" />
        <cc:requires
           rdf:resource="http://creativecommons.org/ns#Attribution" />
        <cc:prohibits
           rdf:resource="http://creativecommons.org/ns#CommercialUse" />
      </cc:License>
    </rdf:RDF>
  </metadata>
  <g
     transform="matrix(1.2100583,0,0,1.2100583,-9.9577444,-16.224591)"
     id="g4260">
    <circle
       r="64.488136"
       cy="83.92823"
       cx="118.41682"
       id="path4180"
       style="opacity:1;fill:#00004b;fill-opacity:1;fill-rule:nonzero;stroke:none;stroke-width:10.66666698;stroke-linecap:round;stroke-linejoin:miter;stroke-miterlimit:4;stroke-dasharray:none;stroke-dashoffset:0;stroke-opacity:1" />
    <path
       style="color:#000000;font-style:normal;font-variant:normal;font-weight:normal;font-stretch:normal;font-size:medium;line-height:normal;font-family:sans-serif;text-indent:0;text-align:start;text-decoration:none;text-decoration-line:none;text-decoration-style:solid;text-decoration-color:#000000;letter-spacing:normal;word-spacing:normal;text-transform:none;writing-mode:lr-tb;direction:ltr;baseline-shift:baseline;text-anchor:start;white-space:normal;clip-rule:nonzero;display:inline;overflow:visible;visibility:visible;opacity:1;isolation:auto;mix-blend-mode:normal;color-interpolation:sRGB;color-interpolation-filters:linearRGB;solid-color:#000000;solid-opacity:1;fill:#ffffff;fill-opacity:1;fill-rule:nonzero;stroke:#00004a;stroke-width:1.76300049;stroke-linecap:round;stroke-linejoin:miter;stroke-miterlimit:4;stroke-dasharray:none;stroke-dashoffset:0;stroke-opacity:1;color-rendering:auto;image-rendering:auto;shape-rendering:auto;text-rendering:auto;enable-background:accumulate"
       d="m 60.805125,83.929139 c 0,-31.879843 25.731698,-57.61357 57.611535,-57.61357 31.87985,0 57.61155,25.733727 57.61155,57.61357 0,30.008061 -22.79881,54.568741 -52.06377,57.349381 -1.82542,0.17345 -3.676,0.26215 -5.54778,0.26215 -31.879837,0 -57.611535,-25.73169 -57.611535,-57.611531 z m 127.432375,2.8e-5 c 0,-38.498163 -31.32267,-69.822917 -69.82084,-69.822917 -38.498157,0 -69.820826,31.324754 -69.820826,69.822917 0,38.498163 31.322669,69.820823 69.820826,69.820823 38.49817,0 69.82084,-31.32266 69.82084,-69.820823 z"
       id="circle4258" />
    <path
       d="m 88.246927,126.16609 -3.265299,0.25398 -1.296397,3.00766 -1.250586,-3.02699 -3.261066,-0.30353 2.492394,-2.12477 -0.719052,-3.19526 2.79097,1.71382 2.816667,-1.67125 -0.76748,3.18397 z"
       id="path4192"
       style="opacity:1;fill:#ffffff;fill-opacity:1;fill-rule:nonzero;stroke:none;stroke-width:1.06666672;stroke-linecap:round;stroke-linejoin:miter;stroke-miterlimit:4;stroke-dasharray:none;stroke-dashoffset:0;stroke-opacity:1" />
    <path
       d="m 154.8752,67.834537 -4.76008,0.04175 -2.18055,4.231471 -1.51065,-4.514206 -4.69819,-0.766222 3.82645,-2.83168 -0.7231,-4.705022 3.87552,2.764131 4.2513,-2.141641 -1.43125,4.540006 z"
       id="path4194"
       style="opacity:1;fill:#ffffff;fill-opacity:1;fill-rule:nonzero;stroke:none;stroke-width:1.06666672;stroke-linecap:round;stroke-linejoin:miter;stroke-miterlimit:4;stroke-dasharray:none;stroke-dashoffset:0;stroke-opacity:1" />
    <path
       d="m 138.78149,138.98827 -1.65896,-1.26711 -1.89405,0.87767 0.69245,-1.96932 -1.42001,-1.53013 2.08692,0.05 1.01643,-1.82334 0.59734,2.00022 2.0482,0.40324 -1.71774,1.18621 z"
       id="path4196"
       style="opacity:1;fill:#ffffff;fill-opacity:1;fill-rule:nonzero;stroke:none;stroke-width:1.06666672;stroke-linecap:round;stroke-linejoin:miter;stroke-miterlimit:4;stroke-dasharray:none;stroke-dashoffset:0;stroke-opacity:1" />
    <path
       transform="matrix(0.75424723,0.75424723,-0.75424723,0.75424723,93.197451,-19.683814)"
       d="m 69.233774,102.66813 -1.224075,-1.31885 -1.737232,0.46876 0.876035,-1.57171 -0.982649,-1.507351 1.765494,0.347474 1.129922,-1.400352 0.215101,1.78646 1.680979,0.641889 -1.632555,0.75662 z"
       id="path4198"
       style="opacity:1;fill:#ffffff;fill-opacity:1;fill-rule:nonzero;stroke:none;stroke-width:1;stroke-linecap:round;stroke-linejoin:miter;stroke-miterlimit:4;stroke-dasharray:none;stroke-dashoffset:0;stroke-opacity:1" />
    <path
       d="m 151.98082,44.707377 2.09887,1.643524 2.43205,-1.091579 -0.91449,2.504021 1.7897,1.975703 -2.66406,-0.09595 -1.32596,2.31263 -0.73199,-2.563323 -2.60918,-0.546419 2.21167,-1.488267 z"
       id="path4186"
       style="opacity:1;fill:#ffffff;fill-opacity:1;fill-rule:nonzero;stroke:none;stroke-width:1.06666672;stroke-linecap:round;stroke-linejoin:miter;stroke-miterlimit:4;stroke-dasharray:none;stroke-dashoffset:0;stroke-opacity:1" />
    <path
       d="m 164.93489,75.131782 1.08118,1.229924 1.59198,-0.38374 -0.83562,1.408334 0.85691,1.395485 -1.59763,-0.359527 -1.06238,1.246198 -0.15177,-1.630533 -1.5135,-0.625293 1.50383,-0.648199 z"
       id="path4188"
       style="opacity:1;fill:#ffffff;fill-opacity:1;fill-rule:nonzero;stroke:none;stroke-width:1.06666672;stroke-linecap:round;stroke-linejoin:miter;stroke-miterlimit:4;stroke-dasharray:none;stroke-dashoffset:0;stroke-opacity:1" />
    <path
       d="m 134.25601,47.34724 -1.19274,0.503407 -0.11019,1.289923 -0.84734,-0.978801 -1.26085,0.29381 0.66906,-1.108339 -0.66906,-1.108338 1.26085,0.29381 0.84734,-0.978801 0.11019,1.289923 z"
       id="path4190"
       style="opacity:1;fill:#ffffff;fill-opacity:1;fill-rule:nonzero;stroke:none;stroke-width:1.06666672;stroke-linecap:round;stroke-linejoin:miter;stroke-miterlimit:4;stroke-dasharray:none;stroke-dashoffset:0;stroke-opacity:1" />
    <g
       id="text4200"
       style="font-style:normal;font-variant:normal;font-weight:bold;font-stretch:normal;font-size:26.66666603px;line-height:0%;font-family:Caslon;-inkscape-font-specification:'Caslon Bold';letter-spacing:0px;word-spacing:0px;fill:#000000;fill-opacity:1;stroke:none;stroke-width:1.06666672px;stroke-linecap:butt;stroke-linejoin:miter;stroke-opacity:1"
       aria-label="Ghostbird">
      <path
         id="path4713"
         style="font-style:normal;font-variant:normal;font-weight:bold;font-stretch:normal;font-size:14.66666698px;font-family:Caslon;-inkscape-font-specification:'Caslon Bold';stroke-width:1.06666672px"
         d="m 155.6925,31.494162 -0.56414,-0.342567 q -0.20058,-0.121802 -0.39491,4.19e-4 -0.18672,0.109684 -0.31613,0.322801 l -1.72806,2.845746 -0.3698,-0.464787 q -1.45925,0.538084 -3.16464,-0.41171 -1.54735,-0.870979 -1.81361,-2.834364 -0.25866,-1.975921 0.75113,-3.610567 0.95919,-1.579577 2.82902,-2.228672 1.86984,-0.649095 3.23361,0.213363 0.68188,0.43123 1.00154,0.865566 0.33981,0.429414 0.56721,1.185225 l 0.96805,-0.407378 0.32595,0.197928 -1.49657,2.831883 -0.21312,-0.129414 q 0.35112,-1.228142 0.008,-2.500213 -0.33034,-1.264458 -1.39146,-1.80586 -1.14395,-0.574542 -2.59471,0.260398 -1.43061,0.830016 -2.27068,2.241697 -0.41377,0.709647 -0.64934,1.493185 -0.22796,0.771002 -0.2522,1.5456 -0.0242,0.774599 0.32183,1.448034 0.34606,0.673435 1.04317,1.079592 1.18871,0.670362 2.33856,0.133151 l 1.55297,-2.557411 q 0.33496,-0.551598 -0.0787,-0.802814 l -0.38863,-0.23599 0.15987,-0.263263 2.74545,1.667159 z" />
      <path
         id="path4715"
         style="font-style:normal;font-variant:normal;font-weight:bold;font-stretch:normal;font-size:14.66666698px;font-family:Caslon;-inkscape-font-specification:'Caslon Bold';stroke-width:1.06666672px"
         d="m 159.14379,40.785469 -2.50306,-2.059352 0.19569,-0.237847 0.50967,0.419325 q 0.11326,0.09318 0.26709,0.0678 0.17447,-0.02739 0.26766,-0.140649 l 2.92595,-3.556385 q 0.29819,-0.362434 0.25,-0.8579 -0.0482,-0.495465 -0.41993,-0.782326 -0.39441,-0.305497 -1.00715,-0.391784 -0.60142,-0.07697 -1.10419,0.0032 l -3.0005,3.646994 q -0.0932,0.11326 -0.0978,0.280423 0.0161,0.165156 0.12932,0.258339 l 0.50967,0.419325 -0.19568,0.237847 -2.50306,-2.059351 0.19568,-0.237848 0.49835,0.410007 q 0.11326,0.09318 0.27842,0.07712 0.17447,-0.02739 0.26765,-0.140648 l 4.80826,-5.844251 -0.47384,-0.693725 0.16773,-0.203869 2.16468,0.508447 -2.45072,2.978755 q 0.53474,-0.07285 1.16283,0.06405 0.6374,0.125568 1.09775,0.466331 0.36974,0.266216 0.67627,0.632359 0.30652,0.366143 0.41463,0.834941 0.11743,0.457472 -0.17143,0.80858 l -3.20551,3.896167 q -0.0839,0.101935 -0.0771,0.278416 0.007,0.176481 0.10868,0.260346 l 0.50967,0.419325 z" />
      <path
         id="path4717"
         style="font-style:normal;font-variant:normal;font-weight:bold;font-stretch:normal;font-size:14.66666698px;font-family:Caslon;-inkscape-font-specification:'Caslon Bold';stroke-width:1.06666672px"
         d="m 161.53948,43.573941 q -0.52869,-0.569861 -0.75255,-1.242456 -0.20314,-0.671818 -0.1069,-1.301279 0.10622,-0.61871 0.42891,-1.198171 0.32268,-0.579461 0.80653,-1.028343 0.49459,-0.458857 1.09659,-0.737259 0.61196,-0.267651 1.23689,-0.327252 0.6349,-0.04885 1.27887,0.213988 0.65473,0.252861 1.18341,0.822722 0.53866,0.580613 0.7418,1.252431 0.22386,0.672595 0.11764,1.291304 -0.0962,0.629462 -0.41892,1.208923 -0.31272,0.590213 -0.80731,1.04907 -0.48385,0.448882 -1.09581,0.716532 -0.602,0.278403 -1.2369,0.327252 -0.62492,0.0596 -1.28962,-0.204013 -0.64398,-0.262836 -1.18263,-0.843449 z m 0.16128,-0.149627 q 0.49876,0.537604 1.33251,0.444318 0.83375,-0.09329 1.62319,-0.66563 0.80019,-0.582319 1.43002,-1.326696 0.62984,-0.744377 0.78528,-1.568805 0.15544,-0.824428 -0.34332,-1.362032 -0.3591,-0.387076 -0.91718,-0.449507 -0.54811,-0.05168 -1.12782,0.186045 -0.55898,0.238502 -1.14491,0.642045 -0.58593,0.403543 -1.0322,0.957615 -0.43552,0.544097 -0.72595,1.093632 -0.26971,0.550313 -0.25921,1.10075 0.0205,0.561189 0.37959,0.948265 z" />
      <path
         id="path4719"
         style="font-style:normal;font-variant:normal;font-weight:bold;font-stretch:normal;font-size:14.66666698px;font-family:Caslon;-inkscape-font-specification:'Caslon Bold';stroke-width:1.06666672px"
         d="m 170.57877,53.773978 q -0.22658,0.188589 -0.72749,0.102336 -0.50091,-0.08625 -0.8252,-0.539757 -0.26286,-0.388817 -0.1441,-0.894003 0.11877,-0.505186 0.48329,-0.751618 l 4.13117,-2.792893 -0.46,-0.680428 0.26731,-0.180717 q 0.90033,0.205705 1.42845,0.09652 0.31591,-0.213574 0.38505,-0.844544 0.0813,-0.639184 -0.33764,-1.25886 -0.46822,-0.692579 -1.226,-0.870731 -0.74563,-0.186367 -1.41031,0.19218 0.28391,0.498513 0.44905,1.502212 l -1.33656,0.903583 -0.0329,-0.0486 q 0.50536,-0.48328 0.69635,-1.143514 0.20314,-0.668448 -0.16651,-1.215221 -0.64894,-0.95989 -1.49588,-0.458128 -0.38094,0.222131 -0.46754,0.670159 -0.0744,0.439813 0.002,0.97221 0.0767,0.532397 0.11689,1.089438 0.0484,0.56919 -0.20006,1.14437 -0.22812,0.579116 -0.83565,0.989836 -0.65613,0.443577 -1.39782,0.236845 -0.74169,-0.206731 -1.29925,-0.874325 -0.36896,-0.441012 -0.67546,-1.915672 l 1.33656,-0.903583 0.0411,0.06075 q -0.56217,0.503987 -0.73177,1.326798 -0.16959,0.82281 0.33011,1.35247 0.68402,0.723726 1.61534,0.0587 0.29554,-0.217511 0.33747,-0.653046 0.0623,-0.431599 -0.0183,-0.943631 -0.0684,-0.520247 -0.12081,-1.069072 -0.032,-0.54489 0.19218,-1.103641 0.2324,-0.546601 0.79526,-0.944828 0.63576,-0.447513 1.38567,-0.228631 0.75812,0.231032 1.29959,0.927205 0.85909,-0.509976 1.88059,-0.439296 1.02971,0.08283 1.69508,1.067023 0.6325,0.935589 0.65475,1.858856 0.0222,0.923266 -0.41517,1.218984 l -1.09355,0.739295 0.66536,0.984191 -0.6539,0.158811 -0.53393,-0.789783 -4.22838,2.858607 q -0.15796,0.106787 -0.18517,0.302222 -0.007,0.199371 0.11209,0.349113 0.14752,0.165829 0.47336,0.228807 0.33405,0.07513 0.48379,-0.04381 z" />
      <path
         id="path4721"
         style="font-style:normal;font-variant:normal;font-weight:bold;font-stretch:normal;font-size:14.66666698px;font-family:Caslon;-inkscape-font-specification:'Caslon Bold';stroke-width:1.06666672px"
         d="m 176.5867,60.134372 q -1.27316,0.635522 -2.74584,0.164615 -1.45942,-0.477187 -1.98193,-1.511765 -0.58529,-1.167127 -0.32298,-2.086591 l -0.233,-0.149293 q -0.23301,-0.149293 -0.46601,-0.298586 l -0.24626,-0.143015 7.99269,-3.785926 -0.16324,-0.652976 0.21208,-0.100456 1.6394,1.268292 -3.37999,1.601013 q 0.82598,0.339052 1.34291,1.327587 0.65505,1.280143 0.28949,2.42703 -0.35929,1.160143 -1.93732,1.940071 z m -0.64947,-1.2341 q 0.74227,-0.351595 1.22503,-0.839926 0.49602,-0.49461 0.64322,-0.937599 0.16045,-0.449267 0.17441,-0.796683 0.014,-0.347415 -0.10045,-0.520427 -0.51484,-0.778551 -1.10921,-0.902733 -0.58112,-0.13046 -1.28363,0.2023 l -2.67749,1.268253 q -1.37083,0.90899 -0.67183,2.281917 0.37113,0.749249 1.47268,0.779257 1.12108,0.03698 2.32727,-0.534359 z" />
      <path
         id="path4723"
         style="font-style:normal;font-variant:normal;font-weight:bold;font-stretch:normal;font-size:14.66666698px;font-family:Caslon;-inkscape-font-specification:'Caslon Bold';stroke-width:1.06666672px"
         d="m 182.41968,61.72995 q -0.24844,0.08929 -0.46476,-0.03557 -0.19755,-0.116019 -0.27196,-0.323052 -0.0695,-0.193232 0.004,-0.422269 0.0923,-0.220195 0.34074,-0.309489 0.34505,-0.12402 0.57733,0.08861 0.25104,0.221476 0.19843,0.552089 -0.0388,0.325653 -0.38386,0.449672 z m -7.66472,3.954913 -1.1013,-3.064096 0.28985,-0.104177 0.22323,0.621101 q 0.0496,0.138022 0.19972,0.208754 0.1639,0.06577 0.30193,0.01616 l 4.49952,-1.617218 -0.0145,-0.820813 0.20704,-0.07441 1.58453,1.503324 -5.87975,2.113297 q -0.13802,0.04961 -0.22256,0.204672 -0.0707,0.150105 -0.0211,0.288127 l 0.22323,0.621101 z" />
      <path
         id="path4725"
         style="font-style:normal;font-variant:normal;font-weight:bold;font-stretch:normal;font-size:14.66666698px;font-family:Caslon;-inkscape-font-specification:'Caslon Bold';stroke-width:1.06666672px"
         d="m 182.42747,69.014327 q -0.28943,0.109329 -0.60587,-0.04762 -0.31643,-0.156948 -0.40389,-0.589165 -0.10546,-0.44251 0.18913,-0.811681 0.0206,-0.03602 0.17366,-0.03215 -0.30742,-0.569866 -1.05477,-0.913352 l -4.61291,1.257867 q -0.12735,0.03473 -0.22383,0.182653 -0.0965,0.147927 -0.0618,0.275277 l 0.17363,0.636751 -0.29715,0.08103 -0.85273,-3.127155 0.29716,-0.08103 0.17363,0.636751 q 0.0386,0.1415 0.17879,0.209682 0.15822,0.07847 0.29972,0.03989 l 4.79686,-1.308027 0.0721,-0.627737 0.12735,-0.03473 1.27343,1.492219 -0.94805,0.258519 q 0.40262,0.194255 0.89398,0.713961 0.50938,0.529997 0.62771,0.908189 0.22508,0.713935 -0.21615,0.879856 z" />
      <path
         id="path4727"
         style="font-style:normal;font-variant:normal;font-weight:bold;font-stretch:normal;font-size:14.66666698px;font-family:Caslon;-inkscape-font-specification:'Caslon Bold';stroke-width:1.06666672px"
         d="m 178.03519,77.991175 -1.01396,-1.387729 0.43492,-0.06666 q -0.51037,-0.619156 -0.69714,-1.644023 -0.25237,-1.356085 0.50425,-2.421688 0.77334,-1.053329 2.43386,-1.352368 1.48657,-0.272374 2.64804,0.528901 1.1637,0.815772 1.38708,2.176301 0.17005,1.012592 -0.31768,1.799573 l 2.31958,-0.355544 0.0383,-0.718095 0.28211,0.0013 1.13534,1.695559 -8.71291,1.335512 -0.0939,0.355661 z m 0.91419,-1.683275 2.47904,-0.379987 q 1.39175,-0.213327 1.77556,-0.613431 0.38603,-0.385606 0.22382,-1.443912 -0.27894,-1.722963 -3.35343,-1.355571 -0.61111,0.07883 -1.16318,0.252481 -0.55206,0.173648 -1.04508,0.442111 -0.4763,0.280739 -0.70847,0.702113 -0.22995,0.435871 -0.10423,0.965607 0.18465,0.81746 0.61713,1.122118 0.43471,0.319155 1.27884,0.308471 z" />
    </g>
    <g
       transform="translate(109.76301,76.251327)"
       id="g4354">
      <circle
         r="10.666667"
         cy="0"
         cx="0"
         style="fill:none;stroke:#000000;stroke-width:1.06666672"
         id="path4358" />
    </g>
    <path
       id="path4182"
       d="m 188.2375,83.929167 c 0,-38.498163 -31.32267,-69.822917 -69.82084,-69.822917 -38.498157,0 -69.820826,31.324754 -69.820826,69.822917 0,38.498163 31.322669,69.820823 69.820826,69.820823 38.49817,0 69.82084,-31.32266 69.82084,-69.820823 z"
       style="color:#000000;font-style:normal;font-variant:normal;font-weight:normal;font-stretch:normal;font-size:medium;line-height:normal;font-family:sans-serif;text-indent:0;text-align:start;text-decoration:none;text-decoration-line:none;text-decoration-style:solid;text-decoration-color:#000000;letter-spacing:normal;word-spacing:normal;text-transform:none;writing-mode:lr-tb;direction:ltr;baseline-shift:baseline;text-anchor:start;white-space:normal;clip-rule:nonzero;display:inline;overflow:visible;visibility:visible;opacity:1;isolation:auto;mix-blend-mode:normal;color-interpolation:sRGB;color-interpolation-filters:linearRGB;solid-color:#000000;solid-opacity:1;fill:none;fill-opacity:1;fill-rule:nonzero;stroke:none;stroke-width:10.66666698;stroke-linecap:round;stroke-linejoin:miter;stroke-miterlimit:4;stroke-dasharray:none;stroke-dashoffset:0;stroke-opacity:1;color-rendering:auto;image-rendering:auto;shape-rendering:auto;text-rendering:auto;enable-background:accumulate" />
    <g
       id="text4184"
       style="font-style:normal;font-variant:normal;font-weight:bold;font-stretch:normal;font-size:13.33333302px;line-height:0%;font-family:Caslon;-inkscape-font-specification:'Caslon Bold';letter-spacing:0px;word-spacing:0px;fill:#000000;fill-opacity:1;stroke:none;stroke-width:1.06666672px;stroke-linecap:butt;stroke-linejoin:miter;stroke-opacity:1"
       aria-label="Spaceflight">
      <path
         id="path4730"
         style="font-style:normal;font-variant:normal;font-weight:bold;font-stretch:normal;font-size:13.33333302px;font-family:Caslon;-inkscape-font-specification:'Caslon Bold';stroke-width:1.06666672px"
         d="m 54.969094,99.987087 q -0.875407,0.178063 -1.797774,-0.409888 -0.9093,-0.590607 -1.177721,-1.910251 -0.122252,-0.601027 0.07173,-1.25277 0.196643,-0.638678 0.164306,-0.93144 -0.02414,-0.185579 -0.676329,-0.515537 l -0.03721,-0.182921 2.806042,-0.720431 0.04518,0.222119 q -0.99986,0.502715 -1.621692,1.459186 -0.621831,0.956471 -0.411878,1.988668 0.151485,0.74475 0.62341,1.124981 0.487648,0.390639 1.245464,0.236497 0.548763,-0.111621 0.911058,-0.471047 0.37536,-0.362083 0.546316,-0.859472 0.18668,-0.486982 0.299835,-1.067859 0.128879,-0.570468 0.228969,-1.148688 0.115813,-0.567811 0.286769,-1.0652 0.173614,-0.484324 0.522843,-0.841092 0.349229,-0.356768 0.884926,-0.465731 0.990342,-0.215046 1.868641,0.490718 0.878298,0.705764 1.093567,1.764092 0.09567,0.470369 0.06025,0.83134 -0.02236,0.358314 -0.11072,0.525956 -0.08836,0.167643 -0.14527,0.356101 -0.04119,0.198867 0.02747,0.402604 0.03699,0.114935 0.272836,0.271057 0.238509,0.169188 0.416559,0.241823 l 0.03721,0.182921 -2.852989,0.757192 -0.04518,-0.222118 q 0.999861,-0.502716 1.642953,-1.354661 0.658816,-0.841536 0.459494,-1.82147 -0.143512,-0.705552 -0.746318,-1.127194 -0.589739,-0.424299 -1.295291,-0.280787 -0.601027,0.122252 -0.944273,0.709111 -0.340589,0.599925 -0.510656,1.369261 -0.154343,0.779744 -0.337476,1.551737 -0.167409,0.782401 -0.615182,1.390522 -0.445115,0.621186 -1.189865,0.772671 z" />
      <path
         id="path4732"
         style="font-style:normal;font-variant:normal;font-weight:bold;font-stretch:normal;font-size:13.33333302px;font-family:Caslon;-inkscape-font-specification:'Caslon Bold';stroke-width:1.06666672px"
         d="m 58.261489,107.2857 q -1.218681,0.43386 -2.496038,-0.15266 -1.264707,-0.59072 -1.622756,-1.5817 -0.332778,-0.91506 -0.03737,-1.67391 l -1.606621,0.53493 q -0.126506,0.0421 -0.198227,0.16437 -0.08016,0.13911 -0.03804,0.26561 l 0.18954,0.56928 -0.265662,0.0884 -0.930852,-2.79577 0.265662,-0.0885 0.18954,0.56927 q 0.03791,0.11386 0.185459,0.17715 0.147551,0.0633 0.261407,0.0254 l 5.844561,-1.94594 0.109847,-0.64085 0.240361,-0.08 1.281322,1.31595 -0.518673,0.17269 q 0.805147,0.51889 1.112667,1.31589 0.450728,1.22712 -0.005,2.22203 -0.4515,1.00755 -1.961144,1.5383 z m -0.450742,-1.18496 q 0.708432,-0.23587 1.197665,-0.62361 0.501883,-0.39195 0.69597,-0.77979 0.21095,-0.3794 0.261654,-0.69139 0.0507,-0.312 -0.03357,-0.48068 -0.678365,-1.36212 -1.994024,-0.92407 l -2.719872,0.90558 q -1.290445,0.6826 -0.822869,1.96032 0.252734,0.71687 1.24353,0.86479 1.007659,0.15635 2.171511,-0.23115 z" />
      <path
         id="path4734"
         style="font-style:normal;font-variant:normal;font-weight:bold;font-stretch:normal;font-size:13.33333302px;font-family:Caslon;-inkscape-font-specification:'Caslon Bold';stroke-width:1.06666672px"
         d="m 58.857032,114.9784 q -0.253418,0.11908 -0.535771,-0.0429 -0.282352,-0.16196 -0.443303,-0.41043 -0.275086,-0.46002 -0.14569,-0.87439 0.135066,-0.4023 0.618492,-0.65892 -0.500294,-0.0301 -0.960025,-0.25603 -0.459732,-0.22594 -0.641184,-0.6121 -0.340224,-0.72404 -0.217082,-1.37119 0.123142,-0.64714 0.798195,-0.93487 0.566446,-0.23671 1.080844,-0.0512 0.526467,0.17985 0.857673,0.53983 0.336876,0.37206 0.796464,0.84851 0.459588,0.47644 0.795155,0.6576 l 1.230884,-0.57838 q 0.313755,-0.14743 0.38136,-0.47384 0.06761,-0.3264 -0.0855,-0.65223 -0.255167,-0.54303 -0.554531,-0.7412 -0.164001,0.12126 -0.565719,0.2069 -0.293837,0.0644 -0.461328,0.0842 -0.167492,0.0198 -0.374676,-0.0449 -0.207184,-0.0647 -0.29224,-0.24571 -0.175782,-0.37409 0.19831,-0.54988 0.500438,-0.22041 1.249646,0.11994 0.991141,0.44766 1.522704,1.64161 0.170112,0.36203 0.104544,0.84953 -0.04783,0.4939 -0.5788,0.74339 l -3.813329,1.79184 q -0.19308,0.0907 -0.292526,0.25532 -0.09378,0.17665 -0.0023,0.33992 0.07444,0.12707 0.293693,0.1861 0.23132,0.0534 0.434287,0.0464 z m 0.03677,-2.2418 1.604977,-0.75416 q -0.128382,-0.11646 -0.465985,-0.45871 -0.337604,-0.34225 -0.57096,-0.5567 -0.233356,-0.21445 -0.605851,-0.34879 -0.366825,-0.12227 -0.703988,0.007 -0.81274,0.30824 -0.910876,0.66372 -0.08607,0.34982 0.20312,0.96526 0.0964,0.20515 0.397941,0.3139 0.307214,0.12082 0.503784,0.13157 0.202241,0.0228 0.547838,0.0372 z" />
      <path
         id="path4736"
         style="font-style:normal;font-variant:normal;font-weight:bold;font-stretch:normal;font-size:13.33333302px;font-family:Caslon;-inkscape-font-specification:'Caslon Bold';stroke-width:1.06666672px"
         d="m 62.989053,120.28069 q -0.722107,0.0951 -1.381883,-0.14391 -0.659776,-0.23903 -1.012588,-0.82035 -0.684869,-1.12843 -0.302062,-2.29657 0.401124,-1.16367 1.472562,-1.81395 1.174023,-0.71254 2.467552,-0.40583 1.311845,0.31119 1.962125,1.38263 0.546512,0.90046 0.132412,1.76007 -0.300906,0.63493 -0.817449,0.68329 -0.331339,0.0451 -0.554754,-0.27159 -0.205099,-0.31223 0.02168,-0.68383 0.2337,-0.36019 0.658268,-0.50869 0.139217,-0.0533 0.46647,-0.002 0.06721,-0.27474 0.03222,-0.40948 -0.03498,-0.13473 -0.189615,-0.41521 -0.406112,-0.72053 -1.2731,-0.78702 -0.866988,-0.0665 -1.678703,0.39497 -0.674936,0.37844 -1.141476,0.81756 -0.448225,0.44361 -0.632711,1.03908 -0.177567,0.60687 0.159365,1.21342 0.542426,0.99652 2.181595,0.92189 z" />
      <path
         id="path4738"
         style="font-style:normal;font-variant:normal;font-weight:bold;font-stretch:normal;font-size:13.33333302px;font-family:Caslon;-inkscape-font-specification:'Caslon Bold';stroke-width:1.06666672px"
         d="m 69.080017,124.4553 -2.458413,-3.25617 q -0.0506,0.0215 -0.252991,0.10748 -0.183718,0.0886 -0.279488,0.16089 -0.734233,0.55435 -0.947744,1.3337 -0.213512,0.77935 0.204257,1.33269 1.060492,1.40462 2.542368,1.15455 l -0.936413,0.707 q -0.655597,0.12742 -1.373923,-0.18228 -0.707685,-0.31774 -1.133489,-0.88172 -0.755198,-1.00026 -0.548391,-2.20893 0.206807,-1.20866 1.483947,-2.10608 1.003079,-0.70721 2.243456,-0.59117 1.248411,0.12668 1.987542,1.10566 0.586484,0.77679 0.453526,1.72922 -0.122318,0.9444 -0.984244,1.59516 z m -0.336738,-1.0656 q 0.542694,-0.40974 0.799408,-1.02123 0.27539,-0.60888 -0.102209,-1.10901 -0.771267,-1.02154 -2.480754,-0.23208 z" />
      <path
         id="path4740"
         style="font-style:normal;font-variant:normal;font-weight:bold;font-stretch:normal;font-size:13.33333302px;font-family:Caslon;-inkscape-font-specification:'Caslon Bold';stroke-width:1.06666672px"
         d="m 70.718043,131.99345 -3.886283,-4.19705 0.195667,-0.18118 0.407652,0.44025 q 0.08153,0.088 0.242052,0.0848 0.160521,-0.003 0.248571,-0.0848 l 3.590481,-3.32463 -0.407652,-0.44024 0.20545,-0.19024 0.407652,0.44025 1.369665,-1.26825 q 0.342417,-0.31707 0.839201,-0.23192 0.496785,0.0851 0.864213,0.34458 0.38627,0.26016 0.685215,0.58301 0.616008,0.66527 0.627248,1.10915 l 0.482655,0.20725 -6.046096,5.59843 q -0.09783,0.0906 -0.113412,0.25038 -0.0058,0.15074 0.08479,0.24857 l 0.398593,0.43047 z m 2.887848,-5.41792 1.594682,-1.47661 q -0.03008,-0.4446 0.437711,-0.58701 -0.186616,-0.29966 -0.351126,-0.43808 -0.747903,-0.67034 -1.129453,-0.31704 l -1.702299,1.57626 z m -3.795931,3.51487 3.590481,-3.32463 -1.150484,-1.24249 -3.590481,3.32463 q -0.08805,0.0815 -0.103629,0.24133 -0.01558,0.1598 0.06595,0.24785 l 0.697538,0.75331 q 0.09059,0.0978 0.232269,0.0939 0.160521,-0.003 0.258354,-0.0939 z" />
      <path
         id="path4742"
         style="font-style:normal;font-variant:normal;font-weight:bold;font-stretch:normal;font-size:13.33333302px;font-family:Caslon;-inkscape-font-specification:'Caslon Bold';stroke-width:1.06666672px"
         d="m 78.456391,128.53367 q -0.162439,0.17667 -0.389304,0.16732 -0.208027,-0.0101 -0.355255,-0.1455 -0.137414,-0.12634 -0.174768,-0.34181 -0.01852,-0.21626 0.143923,-0.39294 0.225609,-0.24538 0.502342,-0.17207 0.295573,0.0725 0.392609,0.36098 0.106062,0.27864 -0.119547,0.52402 z m -4.505424,6.41715 -2.178982,-2.0034 0.189511,-0.20612 0.441686,0.40609 q 0.09815,0.0902 0.248869,0.0839 0.159741,-0.0161 0.249984,-0.11429 l 2.941939,-3.19977 -0.357769,-0.65497 0.135365,-0.14722 1.910058,0.54261 -3.844374,4.18129 q -0.09024,0.0982 -0.09294,0.25869 0.0063,0.15072 0.10448,0.24096 l 0.441685,0.40609 z" />
      <path
         id="path4744"
         style="font-style:normal;font-variant:normal;font-weight:bold;font-stretch:normal;font-size:13.33333302px;font-family:Caslon;-inkscape-font-specification:'Caslon Bold';stroke-width:1.06666672px"
         d="m 78.74626,139.60429 q -0.623081,0.79914 -1.635737,0.75349 -1.012655,-0.0456 -1.948483,-0.77531 -0.546776,-0.42632 -0.929765,-0.91091 -0.382988,-0.48459 -0.494542,-1.07879 -0.111555,-0.59419 0.26789,-1.05916 0.272864,-0.32828 0.896287,-0.43396 0.633937,-0.0975 1.124936,0.0318 -0.222949,-0.3429 -0.250565,-0.71948 -0.02762,-0.37659 0.152749,-0.60792 0.450914,-0.57832 1.582073,0.11766 -0.333979,-0.39566 -0.336819,-0.95581 -0.0028,-0.56015 0.28892,-1.04277 0.291759,-0.48262 0.735361,-0.81303 0.462314,-0.33273 1.104269,-0.2887 0.650153,0.0335 1.281048,0.52543 0.788619,0.61488 0.844919,1.45342 l 0.172167,-0.22082 q 0.0164,-0.021 0.05739,-0.0736 0.05971,-0.0549 0.0843,-0.0864 0.278746,-0.3575 0.629486,-0.28692 0.350739,0.0706 0.496517,0.40404 0.145779,0.33345 -0.07558,0.61736 -0.229556,0.29441 -0.554632,0.27766 -0.325077,-0.0168 -0.511847,-0.29765 -0.01283,-0.0269 -0.04669,-0.0702 -0.02335,-0.0351 -0.03386,-0.0433 -0.0023,-0.0187 -0.01515,-0.0456 -0.01283,-0.0269 -0.01747,-0.0643 0.0059,-0.0292 0.0094,-0.0772 l -0.204961,0.26287 q -0.05205,0.50045 -0.356642,0.95616 -0.294076,0.4639 -0.750509,0.7674 -0.437719,0.30119 -1.050445,0.26304 -0.612726,-0.0382 -1.201562,-0.49727 -0.126179,-0.0984 -0.18107,-0.15808 -0.06309,-0.0492 -0.186952,-0.12886 -0.123863,-0.0797 -0.195151,-0.11835 -0.05257,-0.041 -0.155407,-0.10426 -0.102833,-0.0633 -0.171804,-0.0832 -0.06077,-0.0305 -0.137943,-0.0399 -0.07717,-0.009 -0.141508,0.008 -0.05382,0.0257 -0.103014,0.0888 -0.114778,0.14721 0.133833,0.54394 0.267324,0.39441 0.681858,0.9036 0.422731,0.49867 0.812669,1.03941 0.389939,0.54073 0.507375,1.1057 0.136149,0.56264 -0.175391,0.96221 z m -0.539923,-4.20819 q 0.389052,0.30335 0.962398,0.0234 0.581544,-0.29049 0.999664,-0.82675 0.426318,-0.54677 0.558037,-1.17108 0.139918,-0.63483 -0.249134,-0.93817 -0.315448,-0.24595 -0.774015,-0.11318 -0.439855,0.13044 -0.828565,0.52056 -0.38871,0.39012 -0.682786,0.85403 -0.275363,0.46159 -0.292304,0.93869 -0.0087,0.46658 0.306705,0.71253 z m -0.411778,4.041 q 0.139373,-0.17875 0.115141,-0.45126 -0.02192,-0.25378 -0.236666,-0.6072 -0.21475,-0.35342 -0.399204,-0.61559 -0.173939,-0.25397 -0.544097,-0.71165 -0.361958,-0.4682 -0.49972,-0.66015 -0.554269,-0.0264 -0.948499,0.0889 -0.391913,0.13401 -0.676541,0.52075 -0.424002,0.56549 -0.168623,1.17038 0.257696,0.6236 0.930651,1.1483 0.672954,0.5247 1.32774,0.59565 0.657102,0.0897 1.099818,-0.47815 z" />
      <path
         id="path4746"
         style="font-style:normal;font-variant:normal;font-weight:bold;font-stretch:normal;font-size:13.33333302px;font-family:Caslon;-inkscape-font-specification:'Caslon Bold';stroke-width:1.06666672px"
         d="m 86.054466,143.48005 -2.506166,-1.54984 0.147269,-0.23814 0.510306,0.31558 q 0.113401,0.0701 0.248884,0.0285 0.153836,-0.046 0.223964,-0.15936 l 2.202024,-3.5608 q 0.22441,-0.36288 0.120554,-0.80335 -0.103855,-0.44047 -0.473752,-0.65354 -0.392576,-0.2271 -0.955102,-0.23008 -0.551186,0.004 -0.994342,0.13758 l -2.258126,3.65152 q -0.07013,0.1134 -0.05386,0.26455 0.03462,0.14683 0.148019,0.21695 l 0.510306,0.31558 -0.14727,0.23814 -2.506165,-1.54983 0.147269,-0.23814 0.498965,0.30856 q 0.113401,0.0701 0.260225,0.0355 0.153836,-0.046 0.223964,-0.15936 l 3.618611,-5.8515 -0.511501,-0.56714 0.12623,-0.20413 2.012115,0.19396 -1.84437,2.98245 q 0.472849,-0.13086 1.05537,-0.0842 0.589533,0.0354 1.045823,0.28618 0.36557,0.19472 0.686376,0.48717 0.320807,0.29245 0.475394,0.70159 0.1616,0.39779 -0.0558,0.74933 l -2.412407,3.901 q -0.06311,0.10207 -0.03551,0.26023 0.02761,0.15816 0.129667,0.22128 l 0.510305,0.31557 z" />
      <path
         id="path4748"
         style="font-style:normal;font-variant:normal;font-weight:bold;font-stretch:normal;font-size:13.33333302px;font-family:Caslon;-inkscape-font-specification:'Caslon Bold';stroke-width:1.06666672px"
         d="m 90.240866,144.54941 q -0.0945,0.25078 -0.612747,0.39576 -0.512328,0.13304 -0.990214,-0.10375 -0.394257,-0.19535 -0.55097,-0.65989 -0.144766,-0.45862 0.03283,-0.81704 l 1.971269,-3.9784 -0.669041,-0.3315 0.171672,-0.34647 2.006364,-0.86591 0.287486,0.35077 -0.532775,1.07525 1.039403,0.51502 -0.522983,0.48488 -0.812406,-0.40254 -2.018626,4.07398 q -0.07104,0.14336 0.01905,0.32193 0.09009,0.17856 0.251322,0.24357 0.286624,0.11226 0.620282,0.0395 0.351526,-0.0788 0.398669,-0.234 z" />
    </g>
  </g>
  <g
     id="g4163"
     transform="matrix(1.2148437,0,0,1.2148437,31.59114,3.8842417)">
    <path
       style="display:inline;fill:#886f00;fill-opacity:1;stroke:none;stroke-width:1.06666672"
       id="path5477"
       d="m 67.885572,115.54459 c -7.377408,5.73956 -2.261834,9.37301 -0.73729,9.5801 l 6.511445,-7.59907 z" />
    <path
       style="display:inline;fill:#9c8000;fill-opacity:1;stroke:none;stroke-width:1.06666672"
       id="path5497"
       d="m 73.436836,117.46628 5.425131,1.27881 -7.02656,11.79175 c 0.344832,0.1625 -12.20848,-1.49549 1.601429,-13.07056 z" />
    <path
       style="display:inline;fill:#ad8e00;fill-opacity:1;stroke:none;stroke-width:1.06666672"
       id="path5456"
       d="m 78.701348,118.70722 11.265334,1.25386 c 0.06261,1.99138 1.222939,3.33735 -0.08809,5.03437 -1.293423,0.14906 -2.166849,0.22972 -3.82078,0.38293 -6.943425,0.65431 -7.83913,4.84443 -8.833423,8.08483 l -4.855328,-0.30801 c -2.360373,-5.95215 3.654997,-12.95342 6.332277,-14.448 z" />
    <path
       style="display:inline;fill:#675135;fill-opacity:1;stroke:none;stroke-width:1.06666672"
       id="path5291"
       d="m 27.81424,28.341936 c 0,0 -0.0166,10.584128 -0.578709,13.153835 -0.562124,2.569706 -2.237949,9.890901 -1.445458,14.775818 1.82727,11.263328 3.99509,17.184928 13.932636,31.268139 9.937544,14.083212 15.367839,20.823632 26.299365,27.032132 7.130336,4.04963 15.765536,4.94247 23.93041,5.70154 14.979246,1.39258 33.273856,-7.40739 45.078446,-2.18767 11.80459,5.21974 7.66052,-7.34244 7.66052,-7.34244 C 133.06803,71.540112 118.60811,53.983237 87.382778,27.522981 Z" />
    <path
       style="display:inline;fill:#654112;fill-opacity:1;stroke:none;stroke-width:1.06666672"
       id="path5293"
       d="M 86.963151,26.956539 C 76.175503,34.864048 62.675695,40.583461 51.80837,44.386693 43.824526,47.105861 31.893126,57.717051 43.1356,68.156496 c 11.242477,10.439445 36.47857,20.314475 55.730559,28.266795 25.209631,10.413219 72.168671,21.215839 77.824981,25.276769 -2.73141,-3.17494 -7.17053,-5.37404 -10.84147,-8.01212 3.55778,1.4529 7.17496,3.08406 11.15572,5.80595 0.65258,-1.30518 -54.92614,-69.846866 -90.042239,-92.537351 z" />
    <path
       style="display:inline;fill:#745120;fill-opacity:1;stroke:none;stroke-width:1.06666672"
       id="path5289"
       d="m 26.75371,6.9653197 c 0,0 5.482605,-0.8111574 9.297958,-2.5116267 3.815359,-1.7004693 5.722565,-3.0857067 9.332428,-3.75204274 6.554926,-1.20999467 16.976282,-0.90122667 23.52889,0.32120544 4.745984,0.8853973 7.661376,3.1993813 11.644,4.336384 2.205941,0.6297813 6.745482,1.3651626 6.745482,1.3651626 0,0 1.124246,18.6303867 0.08032,20.7985787 -1.043946,2.168192 -0.642432,4.496992 -3.372746,7.146998 -2.730315,2.650016 -8.993984,1.606069 -11.724299,3.13184 -2.730315,1.52576 -5.139413,3.131829 -10.359136,4.657589 C 56.706889,43.985179 49.078065,38.123024 44.982592,37.641211 40.887117,37.159387 38.397714,38.042725 34.462848,35.794224 30.527981,33.545733 28.816022,31.323653 26.994634,26.238128 25.156017,21.104485 26.631569,6.987517 26.753721,6.9653197 Z" />
    <path
       style="display:inline;fill:#ffff00;fill-opacity:1;stroke:none;stroke-width:1.06666672"
       id="path5287"
       d="m 62.815023,34.927685 c 0,0 -1.873835,-3.17985 -3.009493,-6.586837 -1.13567,-3.406976 2.895925,-7.381794 2.895925,-7.381794 0,0 2.952725,4.201943 2.952725,6.927533 0,2.725589 -2.839157,7.041098 -2.839157,7.041098 z" />
    <path
       style="display:inline;fill:#ffffff;fill-opacity:1;stroke:#6b2d00;stroke-width:0.44969901;stroke-opacity:1"
       id="path5345"
       d="M 57.477423,17.495283 C 56.073027,6.662429 37.463678,3.9658423 26.360291,7.2175437 25.113671,19.056766 32.526717,26.631173 40.896762,28.284069 c 6.468973,1.277472 17.428405,-4.24961 16.580661,-10.788786 z" />
    <path
       style="display:inline;fill:#ffff00;fill-opacity:1;fill-rule:nonzero;stroke:#000000;stroke-width:0.44969898;stroke-opacity:1"
       id="path3059"
       d="m 51.912671,18.403806 a 5.1104764,4.0883814 0 1 1 -10.220952,0 5.1104764,4.0883814 0 1 1 10.220952,0 z" />
    <path
       style="display:inline;fill:#000000;fill-opacity:1;fill-rule:nonzero;stroke:none;stroke-width:1.06666672"
       id="path5299"
       d="m 49.925271,18.119902 a 2.2145404,2.1577572 0 0 1 -4.42908,0 2.2145404,2.1577572 0 1 1 4.42908,0 z" />
    <path
       style="display:inline;fill:#ffffff;fill-opacity:1;stroke:#6b2d00;stroke-width:0.44969901;stroke-opacity:1"
       id="path5329"
       d="M 64.688868,17.779209 C 65.258383,9.146525 77.314436,7.080541 88.026703,6.422589 90.104431,18.543017 90.72058,24.939109 80.304207,28.113723 74.406575,29.911152 64.277978,24.007472 64.688868,17.779209 Z" />
    <path
       style="display:inline;fill:#ffff00;fill-opacity:1;fill-rule:nonzero;stroke:#000000;stroke-width:0.45734388;stroke-miterlimit:4;stroke-dasharray:none;stroke-opacity:1"
       id="path5303"
       d="m 77.649188,18.392883 a 4.343072,3.804466 0 1 1 -8.686144,0 4.343072,3.804466 0 1 1 8.686144,0 z" />
    <path
       style="display:inline;fill:#301a00;fill-opacity:1;stroke:none;stroke-width:1.06666672"
       id="path5325"
       d="m 72.369071,133.15522 c 1.715627,-1.28467 3.927989,-0.46896 4.855328,0.30801 -0.417504,0.62637 0.422037,2.87072 0.823104,2.77047 -4.059893,0.84434 -5.691115,-0.68458 -5.678432,-3.07848 z" />
    <path
       style="display:inline;fill:#000000;fill-opacity:1;fill-rule:nonzero;stroke:none;stroke-width:1.06666672"
       id="path5507"
       d="m 74.447386,18.119902 a 1.9630639,1.9127289 0 0 1 -3.926123,0 1.9630639,1.9127289 0 1 1 3.926123,0 z" />
  </g>
</svg>
