<?xml version="1.0" encoding="UTF-8" standalone="no"?>
<svg
   xmlns:dc="http://purl.org/dc/elements/1.1/"
   xmlns:cc="http://creativecommons.org/ns#"
   xmlns:rdf="http://www.w3.org/1999/02/22-rdf-syntax-ns#"
   xmlns:svg="http://www.w3.org/2000/svg"
   xmlns="http://www.w3.org/2000/svg"
   xmlns:sodipodi="http://sodipodi.sourceforge.net/DTD/sodipodi-0.dtd"
   xmlns:inkscape="http://www.inkscape.org/namespaces/inkscape"
   version="1.1"
   id="svg2"
   height="128"
   width="1024"
   inkscape:version="0.91 r13725"
   sodipodi:docname="banner-plain.svg">
  <sodipodi:namedview
     pagecolor="#000000"
     bordercolor="#666666"
     borderopacity="1"
     objecttolerance="10"
     gridtolerance="10"
     guidetolerance="10"
     inkscape:pageopacity="0"
     inkscape:pageshadow="2"
     inkscape:window-width="1680"
     inkscape:window-height="1017"
     id="namedview31"
     showgrid="false"
     inkscape:zoom="0.92531551"
     inkscape:cx="473.31142"
     inkscape:cy="96.459414"
     inkscape:window-x="0"
     inkscape:window-y="0"
     inkscape:window-maximized="1"
     inkscape:current-layer="text3925" />
  <title
     id="title4040">Ghostbird – Website banner</title>
  <defs
     id="defs4" />
  <metadata
     id="metadata7">
    <rdf:RDF>
      <cc:Work
         rdf:about="">
        <dc:format>image/svg+xml</dc:format>
        <dc:type
           rdf:resource="http://purl.org/dc/dcmitype/StillImage" />
        <dc:title>Ghostbird – Website banner</dc:title>
        <dc:date>22 April 2015</dc:date>
        <dc:creator>
          <cc:Agent>
            <dc:title>Gijsbert ter Horst</dc:title>
          </cc:Agent>
        </dc:creator>
        <dc:rights>
          <cc:Agent>
            <dc:title>Gijsbert ter Horst</dc:title>
          </cc:Agent>
        </dc:rights>
        <dc:publisher>
          <cc:Agent>
            <dc:title>Gijsbert ter Horst</dc:title>
          </cc:Agent>
        </dc:publisher>
        <dc:description>The banner for the Ghostbird website. It depicts Ghostbird as Athene Noctua perched on a stylized branch which passes below the word Ghostbird typeset in Caslon Roman.</dc:description>
        <cc:license
           rdf:resource="http://creativecommons.org/licenses/by-nc-nd/3.0/" />
        <dc:contributor>
          <cc:Agent>
            <dc:title>George Williams (Caslon Roman typeface)</dc:title>
          </cc:Agent>
        </dc:contributor>
      </cc:Work>
      <cc:License
         rdf:about="http://creativecommons.org/licenses/by-nc-nd/3.0/">
        <cc:permits
           rdf:resource="http://creativecommons.org/ns#Reproduction" />
        <cc:permits
           rdf:resource="http://creativecommons.org/ns#Distribution" />
        <cc:requires
           rdf:resource="http://creativecommons.org/ns#Notice" />
        <cc:requires
           rdf:resource="http://creativecommons.org/ns#Attribution" />
        <cc:prohibits
           rdf:resource="http://creativecommons.org/ns#CommercialUse" />
      </cc:License>
    </rdf:RDF>
  </metadata>
  <path
     style="fill:#098f00;fill-opacity:1;stroke:none"
     d="m 789.02029,23.112351 c -2.778,-0.50508 -3.0406,-3.75371 -3.0406,-3.75371 0,0 6.7382,-4.51702 -2.2269,-8.43137 -8.9651,-3.9143405 -16.6066,-1.0245805 -16.6066,-1.0245805 0,0 2.5354,2.1054305 7.5389,7.6995605 5.4716,6.11754 10.6486,2.26081 10.6486,2.26081 0,0 0.774,2.17151 2.5418,3.68674 z"
     id="path3917" />
  <path
     id="path3913"
     d="m 806.07139,43.357141 c -7.8571,-1.42857 -10.3317,-2.32329 -12.296,-9.64471 -1.9643,-7.32143 -4.6683,-10.35529 -4.6683,-10.35529 l -1.4285,0.53572 c 0,0 6.9643,14.10714 0,12.5 -6.9643,-1.60715 -15.3572,-4.46429 -15.3572,-4.46429 l -1.0714,1.78571 c 0,0 30.7296,8.76718 27.0242,12.78504 z"
     style="fill:#71765d;fill-opacity:1;stroke:#71765d;stroke-width:1px;stroke-linecap:round;stroke-linejoin:round;stroke-opacity:1" />
  <path
     id="path3915"
     d="m 771.78809,32.130211 c -2.7779,-0.50508 -5.8084,-2.14657 -5.8084,-2.14657 0,0 5.9347,-3.91434 -3.0304,-7.82869 -8.9651,-3.91434 -22.2094,-1.09155 -22.2094,-1.09155 0,0 8.2498,3.35543 13.2532,8.94956 5.4717,6.11754 11.229,0.85456 11.229,0.85456 0,0 4.1669,0.63134 5.9347,2.14657 z"
     style="fill:#098f00;fill-opacity:1;stroke:none" />
  <g
     id="g4035">
    <path
       style="fill:#71765d;fill-opacity:1;stroke:none"
       d="m 951.94109,128 c -53.2143,-42.857139 -110.502,-111.673679 -158.3592,-79.173679 -47.8571,32.5 -99.6071,37.75742 -256.18075,8.463 C 380.8275,27.994901 -1.3005218e-5,60.319781 -1.3005218e-5,60.319781 l 0,1.80803 c 0,0 413.312773005218,-20.49569 533.197743005218,2.93635 220.34706,43.067789 234.90076,7.04569 271.38876,-13.33068 C 840.78949,31.516311 931.04309,128 931.04309,128 z"
       id="path3892" />
    <path
       style="fill:#0baa00;fill-opacity:1;stroke:none"
       d="m 763.50429,28.743921 c -3.1257,-6.17784 -22.7644,-7.68052 -22.7644,-7.68052 0.067,0.014 19.2467,2.25245 22.7644,7.68052 z"
       id="path3921" />
    <path
       style="fill:#0baa00;fill-opacity:1;stroke:none"
       d="m 785.13389,18.625001 c -2.7568,-6.90194 -17.9877,-8.7223105 -17.9877,-8.7223105 0,0 15.1969,2.7382205 17.9877,8.7223105 z"
       id="path3923" />
  </g>
  <g
     transform="matrix(0.13863839,0,0,0.13863839,882.03429,-13.965709)"
     id="g3097">
    <path
       d="m 286.07189,882.50979 c -49.88747,38.81208 -15.29499,63.3822 -4.98573,64.7826 l 44.03169,-51.38644 z"
       id="path5477"
       style="fill:#886f00;fill-opacity:1;stroke:none;display:inline" />
    <path
       d="m 323.6106,895.50467 36.68578,8.64756 -47.51498,79.73816 c 2.33186,1.0988 -82.55609,-10.1128 10.8292,-88.38572 z"
       id="path5497"
       style="fill:#9c8000;fill-opacity:1;stroke:none;display:inline" />
    <path
       d="m 359.21027,903.89619 76.17837,8.4788 c 0.42372,13.46608 4.7704,30.181 -4.09496,41.6566 l -17.37504,1.248 c -24.45843,-37.1766 -57.14578,24.6772 -64.69583,48.39961 l -32.83268,-2.0828 c -15.96129,-40.24961 24.71583,-87.59361 42.82014,-97.70021 z"
       id="path5456"
       style="fill:#ad8e00;fill-opacity:1;stroke:none;display:inline" />
    <path
       d="m 15.101651,292.82831 c 0,0 -0.112212,71.57196 -3.913341,88.94884 -3.8011907,17.37688 -15.1334536,66.8842 -9.7744737,99.91696 12.3563647,76.16488 27.0155817,116.20788 94.2152247,211.44128 67.199619,95.23344 103.920339,140.81348 177.841429,182.79656 48.21676,27.38444 106.60966,33.42196 161.82215,38.55492 101.29256,9.41692 225.00433,-50.09024 304.82933,-14.79344 79.825,35.29696 51.80192,-49.65104 51.80192,-49.65104 C 726.84845,584.94287 629.06761,466.21983 417.91576,287.29039 z"
       id="path5291"
       style="fill:#675135;fill-opacity:1;stroke:none;display:inline" />
    <path
       d="m 415.0782,283.45999 c -72.94817,53.47212 -164.23654,92.14796 -237.72353,117.86612 -53.98832,18.38756 -134.670786,90.14252 -58.64697,160.73608 76.02383,70.59356 246.67522,137.37048 376.86098,191.1456 170.47245,70.4162 488.01873,143.4656 526.26782,170.92648 -18.4703,-21.4696 -48.48857,-36.34036 -73.31213,-54.17956 24.05836,9.82484 48.51844,20.855 75.43713,39.26096 4.4129,-8.8258 -371.42129,-472.31816 -608.8833,-625.75568 z"
       id="path5293"
       style="fill:#654112;fill-opacity:1;stroke:none;display:inline" />
    <path
       d="m 7.9301421,148.27543 c 0,0 37.0744459,-5.48516 62.8746189,-16.98408 25.800204,-11.49888 38.697099,-20.86612 63.107709,-25.37208 44.32569,-8.182165 114.79694,-6.094205 159.10699,2.17212 32.09325,5.98716 51.80768,21.63484 78.73897,29.32348 14.91703,4.25868 45.61429,9.23144 45.61429,9.23144 0,0 7.6024,125.98232 0.54304,140.64408 -7.05936,14.66172 -4.34424,30.40952 -22.80716,48.32944 -18.46293,17.91988 -60.81906,10.86052 -79.28199,21.17808 -18.4629,10.31748 -34.75374,21.17804 -70.05051,31.49556 -35.29676,10.31752 -86.88436,-29.32348 -114.57875,-32.58164 -27.69441,-3.2582 -44.528241,2.71512 -71.136578,-12.48964 C 33.452433,328.01743 21.87583,312.99131 9.5592413,278.60195 -2.8738464,243.88727 7.1041281,148.42559 7.9301421,148.27543 z"
       id="path5289"
       style="fill:#745120;fill-opacity:1;stroke:none;display:inline" />
    <path
       d="m 251.78384,337.36247 c 0,0 -12.67129,-21.50276 -20.35084,-44.54148 -7.67956,-23.03868 19.58288,-49.91716 19.58288,-49.91716 0,0 19.96686,28.41436 19.96686,46.84536 0,18.43092 -19.1989,47.61328 -19.1989,47.61328 z"
       id="path5287"
       style="fill:#ffff00;fill-opacity:1;stroke:none;display:inline" />
    <path
       d="M 215.68989,219.48115 C 206.19312,146.22727 80.353049,127.99239 5.2697644,149.98107 -3.1601217,230.04019 46.968344,281.25979 103.56823,292.43699 c 43.74447,8.63856 117.85432,-28.73664 112.12166,-72.95584 z"
       id="path5345"
       style="fill:#ffffff;fill-opacity:1;stroke:#6b2d00;stroke-width:3.04095292;stroke-opacity:1;display:inline" />
    <path
       d="m 298.75261,333.63864 a 11.364216,9.0913734 0 1 1 -22.72843,0 11.364216,9.0913734 0 1 1 22.72843,0 z"
       transform="matrix(3.0409528,0,0,3.0409528,-730.43261,-788.95458)"
       id="path3059"
       style="fill:#ffff00;fill-opacity:1;fill-rule:nonzero;stroke:#000000;stroke-opacity:1;display:inline" />
    <path
       d="m 299.38397,332.88104 a 4.924495,4.7982256 0 1 1 -9.84899,0 4.924495,4.7982256 0 1 1 9.84899,0 z"
       transform="matrix(3.0409528,0,0,3.0409528,-745.79173,-788.57062)"
       id="path5299"
       style="fill:#000000;fill-opacity:1;fill-rule:nonzero;stroke:none;display:inline" />
    <path
       d="m 264.45513,221.40107 c 3.85118,-58.37588 85.37657,-72.34644 157.81503,-76.79568 14.05,81.96072 18.21648,125.21236 -52.22102,146.67972 -39.881,12.15456 -108.37257,-27.76728 -105.59401,-69.88404 z"
       id="path5329"
       style="fill:#ffffff;fill-opacity:1;stroke:#6b2d00;stroke-width:3.04095292;stroke-opacity:1;display:inline" />
    <path
       d="m 296.73231,333.63864 a 9.3439112,8.4600277 0 1 1 -18.68782,0 9.3439112,8.4600277 0 1 1 18.68782,0 z"
       transform="matrix(3.1430847,0,0,3.0409528,-580.55944,-789.02846)"
       id="path5303"
       style="fill:#ffff00;fill-opacity:1;fill-rule:nonzero;stroke:#000000;stroke-width:1.00034022;stroke-miterlimit:4;stroke-opacity:1;stroke-dasharray:none;display:inline" />
    <path
       d="m 316.39013,1001.5964 c 11.60142,-8.68721 26.56184,-3.17121 32.83268,2.0828 -2.82322,4.2356 2.8539,19.4124 5.56604,18.7344 -27.45382,5.7096 -38.48442,-4.6292 -38.39872,-20.8172 z"
       id="path5325"
       style="fill:#301a00;fill-opacity:1;stroke:none;display:inline" />
    <path
       d="m 413.91864,955.27959 c 5.79168,-5.7008 11.58336,-4.054 17.37504,-1.248 -4.22568,8.7464 -13.24476,14.1744 -24.09464,18.3348 3.10776,-5.1848 7.6728,-9.5128 6.7196,-17.0868 z"
       id="path5327"
       style="fill:#301a00;fill-opacity:1;stroke:none;display:inline" />
    <path
       d="m 299.38397,332.88104 a 4.924495,4.7982256 0 1 1 -9.84899,0 4.924495,4.7982256 0 1 1 9.84899,0 z"
       transform="matrix(2.6956314,0,0,2.6956314,-476.58468,-673.61966)"
       id="path5507"
       style="fill:#000000;fill-opacity:1;fill-rule:nonzero;stroke:none;display:inline" />
  </g>
  <g
     style="font-style:normal;font-variant:normal;font-weight:normal;font-stretch:normal;font-size:72px;line-height:125%;font-family:Sawasdee;-inkscape-font-specification:Caslon;letter-spacing:0px;word-spacing:0px;fill:#ffffff;fill-opacity:1;stroke:none"
     id="text3925">
    <path
       d="m 503.39282,32.799642 -3.24,0 q -1.152,0 -1.656,1.008 -0.504,0.936 -0.504,2.16 l 0,16.344 -1.8,-1.008 q -5.112,6.336 -13.464,6.336 -5.76,0 -10.224,-3.6 -4.464,-3.6 -6.696,-9.072 -2.16,-5.472 -2.16,-11.664 0,-9.432 5.328,-16.632 5.328,-7.2720004 13.176,-7.2720004 3.816,0 6.336,1.0800004 2.592,1.08 5.4,3.672 l 3.096,-4.3200004 1.656,0 0.936,15.6960004 -1.008,0 q -1.656,-5.976 -6.264,-10.368 -4.536,-4.392 -10.512,-4.392 -4.248,0 -7.56,3.816 -3.312,3.816 -4.896,9.072 -1.584,5.184 -1.584,10.224 0,5.472 1.728,10.44 1.728,4.968 5.472,8.496 3.816,3.456 8.928,3.456 6.336,0 10.152,-5.616 l 0,-14.688 q 0,-3.168 -2.376,-3.168 l -2.232,0 0,-1.296 13.968,0 0,1.296 z"
       style="font-style:normal;font-variant:normal;font-weight:normal;font-stretch:normal;font-family:Caslon;-inkscape-font-specification:Caslon;fill:#ffffff;fill-opacity:1"
       id="path3360" />
    <path
       d="m 539.85182,57.207642 -14.112,0 0,-1.296 3.24,0 q 0.72,0 1.224,-0.576 0.576,-0.648 0.576,-1.368 l 0,-23.112 q 0,-2.304 -1.728,-3.96 -1.656,-1.728 -4.032,-1.728 -2.376,0 -4.968,1.584 -2.592,1.584 -4.248,3.528 l 0,23.688 q 0,0.72 0.504,1.368 0.576,0.576 1.296,0.576 l 3.24,0 0,1.296 -14.112,0 0,-1.296 3.168,0 q 0.72,0 1.296,-0.576 0.576,-0.648 0.576,-1.368 l 0,-37.584 -3.96,-1.152 0,-1.08 7.992,-4.8240004 0,18.9360004 q 1.872,-2.016 4.68,-3.528 2.808,-1.512 5.544,-1.512 1.8,0 3.168,0.216 1.368,0.144 2.736,0.72 1.368,0.504 2.088,1.656 0.792,1.08 0.792,2.808 l 0,25.344 q 0,0.648 0.576,1.296 0.576,0.648 1.224,0.648 l 3.24,0 0,1.296 z"
       style="font-style:normal;font-variant:normal;font-weight:normal;font-stretch:normal;font-family:Caslon;-inkscape-font-specification:Caslon;fill:#ffffff;fill-opacity:1"
       id="path3362" />
    <path
       d="m 558.84295,57.855642 q -6.48,0 -10.152,-5.112 -3.6,-5.112 -3.6,-12.168 0,-6.984 3.6,-12.168 3.672,-5.184 10.152,-5.184 6.48,0 10.08,5.184 3.672,5.112 3.672,12.024 0,7.056 -3.6,12.24 -3.6,5.184 -10.152,5.184 z m -6.984,-5.832 q 2.52,4.752 6.984,4.752 4.464,0 6.912,-4.824 2.52,-4.824 2.52,-11.448 0,-6.552 -2.52,-11.304 -2.448,-4.752 -6.912,-4.752 -4.464,0 -6.984,4.824 -2.52,4.824 -2.52,11.376 0,6.552 2.52,11.376 z"
       style="font-style:normal;font-variant:normal;font-weight:normal;font-stretch:normal;font-family:Caslon;-inkscape-font-specification:Caslon;fill:#ffffff;fill-opacity:1"
       id="path3364" />
    <path
       d="m 619.28132,52.599642 q 0.144,1.512 -1.584,3.384 -1.728,1.8 -4.464,1.872 -3.96,0 -3.96,-5.904 l 0,-24.48 -4.032,0 0,-1.584 q 3.312,-3.096 4.32,-5.544 0,-1.872 -2.376,-3.888 -2.376,-2.088 -6.048,-2.088 -4.104,0 -6.912,2.592 -2.808,2.52 -3.096,6.264 2.592,0.144 7.2,2.304 l 0,7.92 -0.144,0 q -0.648,-3.456 -2.808,-6.12 -2.16,-2.664 -5.328,-2.664 -2.736,0 -4.824,1.296 -2.088,1.296 -2.232,3.672 -0.144,2.448 1.512,4.32 1.728,1.8 4.248,3.024 2.52,1.224 5.112,2.592 2.592,1.296 4.392,3.6 1.8,2.304 1.8,5.472 0,3.888 -2.88,6.336 -2.88,2.448 -7.128,2.88 -2.736,0.288 -9.504,-2.52 l 0,-7.92 0.216,0 q 0.504,3.672 3.384,6.696 2.88,3.024 6.408,2.448 2.592,-0.432 4.32,-2.232 1.728,-1.8 1.656,-4.32 -0.072,-2.232 -1.872,-3.816 -1.728,-1.656 -4.248,-2.736 -2.448,-1.152 -4.968,-2.448 -2.52,-1.296 -4.32,-3.456 -1.728,-2.232 -1.8,-5.328 -0.072,-3.816 2.88,-6.264 3.024,-2.448 7.344,-2.736 0.288,-4.896 3.384,-8.856 3.168,-3.96 9,-3.96 5.4,0 8.352,2.376 3.024,2.376 3.024,5.112 l 0,6.48 5.832,0 -1.152,3.096 -4.68,0 0,25.056 q 0,0.936 0.72,1.584 0.792,0.576 1.728,0.504 1.08,-0.144 2.232,-1.296 1.224,-1.152 1.152,-2.088 l 0.144,1.368 z"
       style="font-style:normal;font-variant:normal;font-weight:normal;font-stretch:normal;font-family:Caslon;-inkscape-font-specification:Caslon;fill:#ffffff;fill-opacity:1"
       id="path3366" />
    <path
       d="m 656.42432,39.711642 q 0,7.488 -4.32,12.816 -4.248,5.328 -9.792,5.328 -5.832,0 -9.216,-2.952 l -3.528,2.952 0,-43.704 -3.24,-0.648 0,-0.864 7.272,-4.6080004 0,18.3600004 q 3.528,-3.168 8.712,-3.168 6.912,0 10.512,3.888 3.6,3.816 3.6,12.6 z m -5.04,0.288 q 0,-4.032 -1.08,-7.2 -1.08,-3.24 -2.664,-4.896 -1.512,-1.728 -2.952,-2.52 -1.44,-0.864 -2.448,-0.864 -4.536,0 -6.624,2.808 -2.016,2.736 -2.016,6.696 l 0,14.544 q 1.152,8.064 8.712,8.064 3.96,0 6.48,-4.968 2.592,-5.04 2.592,-11.664 z"
       style="font-style:normal;font-variant:normal;font-weight:normal;font-stretch:normal;font-family:Caslon;-inkscape-font-specification:Caslon;fill:#ffffff;fill-opacity:1"
       id="path3368" />
    <path
       d="m 666.95657,13.215642 q 0.864,-0.792 1.944,-0.792 1.152,0 1.944,0.792 0.792,0.792 0.792,1.944 0,1.152 -0.792,1.944 -0.792,0.792 -1.944,0.792 -1.08,0 -1.944,-0.792 -0.792,-0.792 -0.792,-1.944 0,-1.152 0.792,-1.944 z m 9.144,43.992 -14.184,0 0,-1.296 3.24,0 q 0.72,0 1.296,-0.576 0.576,-0.648 0.576,-1.368 l 0,-23.832 -3.816,-1.296 0,-0.936 7.776,-4.824 0,30.888 q 0,0.72 0.576,1.368 0.576,0.576 1.296,0.576 l 3.24,0 0,1.296 z"
       style="font-style:normal;font-variant:normal;font-weight:normal;font-stretch:normal;font-family:Caslon;-inkscape-font-specification:Caslon;fill:#ffffff;fill-opacity:1"
       id="path3370" />
    <path
       d="m 700.92032,25.671642 q 0,1.368 -1.08,2.232 -1.08,0.864 -2.592,0.864 -1.296,0 -2.304,-0.432 -0.936,-0.504 -0.936,-1.512 0,-0.216 0.216,-0.432 -2.448,0.504 -5.04,3.672 l 0,23.904 q 0,0.648 0.576,1.296 0.576,0.648 1.224,0.648 l 3.24,0 0,1.296 -14.112,0 0,-1.296 3.24,0 q 0.72,0 1.224,-0.576 0.576,-0.648 0.576,-1.368 l 0,-24.84 -2.88,-1.152 0,-0.432 6.912,-4.104 0,4.824 q 1.368,-1.512 2.232,-2.304 0.864,-0.864 2.592,-1.8 1.8,-0.936 3.6,-0.936 1.368,0 2.304,0.648 1.008,0.648 1.008,1.8 z"
       style="font-style:normal;font-variant:normal;font-weight:normal;font-stretch:normal;font-family:Caslon;-inkscape-font-specification:Caslon;fill:#ffffff;fill-opacity:1"
       id="path3372" />
    <path
       d="m 734.37895,53.967642 -5.688,3.888 0,-2.16 q -3.528,2.16 -8.496,2.16 -6.696,0 -10.512,-4.68 -3.816,-4.68 -3.816,-12.384 0,-6.768 4.032,-12.168 4.032,-5.4 10.296,-5.4 5.184,0 8.496,2.88 l 0,-11.736 -3.456,-0.72 0.216,-1.152 7.272,-4.2480004 0,43.4880004 1.656,0.72 0,1.512 z m -5.688,-5.472 0,-12.744 q 0,-6.912 -1.656,-9.072 -1.584,-2.16 -6.84,-2.16 -2.52,0 -4.392,1.44 -1.8,1.368 -2.808,3.744 -0.936,2.304 -1.44,4.896 -0.432,2.592 -0.432,5.4 0,3.096 0.432,5.832 0.432,2.664 1.368,5.256 0.936,2.52 2.808,4.032 1.944,1.512 4.608,1.512 3.816,0 5.76,-1.944 2.016,-2.016 2.592,-6.192 z"
       style="font-style:normal;font-variant:normal;font-weight:normal;font-stretch:normal;font-family:Caslon;-inkscape-font-specification:Caslon;fill:#ffffff;fill-opacity:1"
       id="path3374" />
  </g>
</svg>
